<?xml version="1.0" encoding="UTF-8"?>
<!-- Generated by Pixelmator Pro 3.3.11 -->
<svg width="1280" height="1280" viewBox="0 0 1280 1280" xmlns="http://www.w3.org/2000/svg">
    <path id="search" fill="#000000" fill-rule="evenodd" stroke="none" d="M 47.488041 42.664673 C 55.121719 32.82312 53.792942 18.743408 44.452847 10.503784 C 35.112747 2.264038 20.977261 2.701538 12.164484 11.50293 C 3.343428 20.311035 2.895444 34.46106 11.141672 43.809448 C 19.387899 53.157837 33.483223 54.479248 43.323303 46.826416 L 43.450138 46.959229 L 55.962032 59.473999 C 57.114536 60.626587 58.98312 60.626587 60.135624 59.473999 C 61.288124 58.321533 61.288124 56.453003 60.135624 55.300415 L 47.620773 42.788574 C 47.577671 42.746094 47.533413 42.704712 47.488041 42.664673 Z M 41.364819 15.676514 C 45.896305 20.134766 47.688499 26.680908 46.059879 32.825684 C 44.431259 38.970459 39.632061 43.769653 33.487297 45.398315 C 27.342529 47.026855 20.796341 45.234741 16.338066 40.703247 C 9.522841 33.776123 9.568149 22.649414 16.43956 15.777954 C 23.31097 8.906616 34.437679 8.861206 41.364819 15.676514 Z"/>
    <path id="qr" fill="#000000" stroke="none" d="M 68 29.319214 L 93.319267 29.319214 L 93.319267 4 L 68 4 Z M 74.329819 10.329834 L 86.989449 10.329834 L 86.989449 22.989502 L 74.329819 22.989502 Z M 68 60.968384 L 93.319267 60.968384 L 93.319267 35.649048 L 68 35.649048 Z M 74.329819 41.978882 L 86.989449 41.978882 L 86.989449 54.63855 L 74.329819 54.63855 Z M 99.649086 4 L 99.649086 29.319214 L 124.968346 29.319214 L 124.968346 4 Z M 118.638535 22.989502 L 105.978897 22.989502 L 105.978897 10.329834 L 118.638535 10.329834 Z M 99.680733 35.649048 L 106.010551 35.649048 L 106.010551 41.978882 L 99.680733 41.978882 Z M 106.010551 41.978882 L 112.340363 41.978882 L 112.340363 48.308716 L 106.010551 48.308716 Z M 99.680733 48.308716 L 106.010551 48.308716 L 106.010551 54.63855 L 99.680733 54.63855 Z M 112.340363 48.308716 L 118.670181 48.308716 L 118.670181 54.63855 L 112.340363 54.63855 Z M 118.670181 54.63855 L 125 54.63855 L 125 60.968384 L 118.670181 60.968384 Z M 106.010551 54.63855 L 112.340363 54.63855 L 112.340363 60.968384 L 106.010551 60.968384 Z M 112.340363 35.649048 L 118.670181 35.649048 L 118.670181 41.978882 L 112.340363 41.978882 Z M 118.670181 41.978882 L 125 41.978882 L 125 48.308716 L 118.670181 48.308716 Z"/>
    <g id="Group">
        <path id="Ellipse-copy-2" fill="#000000" fill-rule="evenodd" stroke="none" d="M 61.046513 95.5 C 61.046513 91.910156 58.13636 89 54.546513 89 C 50.956661 89 48.046513 91.910156 48.046513 95.5 C 48.046513 99.089844 50.956661 102 54.546513 102 C 58.13636 102 61.046513 99.089844 61.046513 95.5 Z"/>
        <path id="Ellipse" fill="#000000" fill-rule="evenodd" stroke="none" d="M 16 95.5 C 16 91.910156 13.08985 89 9.5 89 C 5.910149 89 3 91.910156 3 95.5 C 3 99.089844 5.910149 102 9.5 102 C 13.08985 102 16 99.089844 16 95.5 Z"/>
        <path id="Ellipse-copy" fill="#000000" fill-rule="evenodd" stroke="none" d="M 38.523254 95.5 C 38.523254 91.910156 35.613106 89 32.023254 89 C 28.433405 89 25.523256 91.910156 25.523256 95.5 C 25.523256 99.089844 28.433405 102 32.023254 102 C 35.613106 102 38.523254 99.089844 38.523254 95.5 Z"/>
    </g>
    <g id="directory-line">
        <path id="Path" fill="none" stroke="none" d="M 130 61 L 130 128 L 63 128 L 63 61 L 130 61 Z M 98.155457 125.928589 L 98.124748 125.934204 L 97.926544 126.03186 L 97.870712 126.043091 L 97.831627 126.03186 L 97.633415 125.934204 C 97.605499 125.922974 97.580376 125.931396 97.566414 125.94812 L 97.555252 125.976074 L 97.50779 127.170898 L 97.521751 127.226685 L 97.549667 127.262939 L 97.839996 127.469604 L 97.881874 127.480713 L 97.915375 127.469604 L 98.205711 127.262939 L 98.239212 127.218384 L 98.250374 127.170898 L 98.202919 125.978882 C 98.197334 125.950928 98.177788 125.931396 98.155457 125.928589 Z M 98.895248 125.613159 L 98.858955 125.618652 L 98.342499 125.878296 L 98.314583 125.90625 L 98.306206 125.937012 L 98.356461 127.137329 L 98.370415 127.170898 L 98.392754 127.19043 L 98.953873 127.450073 C 98.987373 127.461182 99.018082 127.450073 99.034836 127.427734 L 99.045998 127.388672 L 98.951088 125.674561 C 98.942703 125.640991 98.923164 125.618652 98.895248 125.613159 Z M 96.899208 125.618652 C 96.873161 125.606934 96.842422 125.613647 96.823837 125.635498 L 96.807083 125.674561 L 96.712166 127.388672 C 96.712166 127.422119 96.731705 127.444458 96.759628 127.455566 L 96.801498 127.450073 L 97.362625 127.19043 L 97.390541 127.168091 L 97.401711 127.137329 L 97.449165 125.937012 L 97.440788 125.903442 L 97.412872 125.875488 L 96.899208 125.618652 Z"/>
        <path id="path1" fill="#000000" fill-rule="evenodd" stroke="none" d="M 79.75 69.375 C 83.833786 69.368896 87.326538 72.309082 88.01693 76.334106 C 88.707321 80.359131 86.394043 84.295288 82.541664 85.650391 L 82.541664 91.708374 L 105.349586 91.708374 C 106.70929 87.861084 110.643036 85.552979 114.664787 86.242798 C 118.686539 86.932495 121.626358 90.419556 121.626358 94.5 C 121.626358 98.580444 118.686539 102.067383 114.664787 102.757202 C 110.643036 103.447021 106.70929 101.138916 105.349586 97.291626 L 82.541664 97.291626 L 82.541664 108.458374 C 82.541664 110.000122 83.791542 111.25 85.333336 111.25 L 105.349586 111.25 C 106.70929 107.40271 110.643036 105.094604 114.664787 105.784424 C 118.686539 106.474243 121.626358 109.961182 121.626358 114.041626 C 121.626358 118.122192 118.686539 121.609131 114.664787 122.29895 C 110.643036 122.988647 106.70929 120.680542 105.349586 116.833374 L 85.333336 116.833374 C 80.707947 116.833374 76.958336 113.08374 76.958336 108.458374 L 76.958336 85.650391 C 73.113136 84.289307 70.80706 80.356689 71.496643 76.336426 C 72.186226 72.316162 75.671021 69.376831 79.75 69.375 Z M 113.25 111.25 C 111.708206 111.25 110.458328 112.499878 110.458328 114.041626 C 110.458328 115.583496 111.708206 116.833374 113.25 116.833374 C 114.791794 116.833374 116.041672 115.583496 116.041672 114.041626 C 116.041672 112.499878 114.791794 111.25 113.25 111.25 Z M 113.25 91.708374 C 111.708206 91.708374 110.458328 92.958252 110.458328 94.5 C 110.458328 96.041748 111.708206 97.291626 113.25 97.291626 C 114.791794 97.291626 116.041672 96.041748 116.041672 94.5 C 116.041672 92.958252 114.791794 91.708374 113.25 91.708374 Z M 79.75 74.958374 C 78.208206 74.958374 76.958336 76.208252 76.958336 77.75 C 76.958336 79.291748 78.208206 80.541626 79.75 80.541626 C 81.291794 80.541626 82.541664 79.291748 82.541664 77.75 C 82.541664 76.208252 81.291794 74.958374 79.75 74.958374 Z"/>
    </g>
    <path id="subdirectory-left" fill="#000000" stroke="none" d="M 153.699997 58 L 150.449997 58 L 150.449997 25.5 L 134.199997 25.5 L 153.699997 6 L 173.199997 25.5 L 156.949997 25.5 L 156.949997 51.5 L 186.199997 51.5 L 186.199997 58 Z"/>
    <path id="chat-solid" fill="#000000" fill-rule="evenodd" stroke="none" d="M 148.813339 76.494995 C 156.636978 75.905518 164.495316 75.944336 172.312759 76.611084 L 177.021942 77.011475 C 180.581055 77.314575 183.469879 80.015137 184.011703 83.545776 L 184.307663 85.486816 C 185.316391 92.067139 185.222244 98.769409 184.029114 105.318726 C 183.440338 108.550049 180.62558 110.898315 177.341095 110.898438 L 151.297028 110.898438 C 150.696426 110.898438 150.107407 111.046387 149.57933 111.330688 L 138.231476 117.429688 C 137.556915 117.792236 136.741486 117.773438 136.084305 117.380371 C 135.427139 116.987183 135.024948 116.277588 135.025299 115.511841 L 135.025299 90.799561 C 135.02684 83.318115 140.793106 77.101563 148.253342 76.538574 L 148.813339 76.494995 Z M 148.807526 90.848877 C 146.804443 90.848877 145.180618 92.472656 145.180618 94.47583 C 145.180618 96.478882 146.804443 98.102661 148.807526 98.102661 C 150.810608 98.102661 152.434433 96.478882 152.434433 94.47583 C 152.434433 92.472656 150.810608 90.848877 148.807526 90.848877 Z M 160.41362 90.848877 C 158.410538 90.848877 156.786713 92.472656 156.786713 94.47583 C 156.786713 96.478882 158.410538 98.102661 160.41362 98.102661 C 162.416702 98.102661 164.040527 96.478882 164.040527 94.47583 C 164.040527 92.472656 162.416702 90.848877 160.41362 90.848877 Z M 168.392807 94.47583 C 168.392807 92.472656 170.016632 90.848877 172.019714 90.848877 C 174.022797 90.848877 175.646606 92.472656 175.646606 94.47583 C 175.646606 96.478882 174.022797 98.102661 172.019714 98.102661 C 170.016632 98.102661 168.392807 96.478882 168.392807 94.47583 Z"/>
    <path id="cloud-upload-solid" fill="#000000" fill-rule="evenodd" stroke="none" d="M 214.810074 20.03894 C 218.049988 15.02417 224.14267 12.655273 229.919128 14.164429 C 235.695587 15.673462 239.851074 20.719727 240.224197 26.678345 C 244.338135 26.561646 248.198257 28.661743 250.335266 32.178955 C 252.472275 35.696289 252.557449 40.089844 250.55835 43.687256 C 248.55925 47.28479 244.783417 49.532715 240.668045 49.575562 L 210.998215 49.575562 C 205.176636 49.570068 199.883118 46.199219 197.415512 40.926514 C 194.947922 35.653809 195.75116 29.42981 199.476563 24.956299 C 203.201965 20.482788 209.177811 18.566284 214.810074 20.03894 Z M 232.109634 33.576294 C 231.785126 33.9823 231.312424 34.242798 230.795746 34.300049 C 230.279053 34.357422 229.760803 34.206909 229.355179 33.881714 L 226.010666 31.203003 L 226.010666 40.184326 C 226.010666 41.265747 225.133972 42.142456 224.052521 42.142456 C 222.971069 42.142456 222.094376 41.265747 222.094376 40.184326 L 222.094376 31.203003 L 218.747253 33.87915 C 217.902283 34.554688 216.669647 34.417358 215.994095 33.572388 C 215.318542 32.727295 215.455902 31.494751 216.300873 30.819214 L 222.8228 25.605225 C 223.166321 25.326416 223.594437 25.172729 224.03685 25.169312 L 224.057739 25.169312 C 224.527695 25.169312 224.955872 25.336426 225.292679 25.613159 L 231.804169 30.819214 C 232.210281 31.143677 232.470688 31.616333 232.527985 32.133057 C 232.585281 32.64978 232.434784 33.167969 232.109634 33.573608 Z"/>
</svg>
