<?xml version="1.0" encoding="UTF-8"?>
<!-- Generated by Pixelmator Pro 3.3.13 -->
<svg width="1280" height="1280" viewBox="0 0 1280 1280" xmlns="http://www.w3.org/2000/svg">
    <path id="search" fill="#000000" fill-rule="evenodd" stroke="none" d="M 47.488041 42.664673 C 55.121719 32.82312 53.792942 18.743408 44.452847 10.503784 C 35.112747 2.264038 20.977261 2.701538 12.164484 11.50293 C 3.343428 20.311035 2.895444 34.46106 11.141672 43.809448 C 19.387899 53.157837 33.483223 54.479248 43.323303 46.826416 L 43.450138 46.959229 L 55.962032 59.473999 C 57.114536 60.626587 58.98312 60.626587 60.135624 59.473999 C 61.288124 58.321533 61.288124 56.453003 60.135624 55.300415 L 47.620773 42.788574 C 47.577671 42.746094 47.533413 42.704712 47.488041 42.664673 Z M 41.364819 15.676514 C 45.896305 20.134766 47.688499 26.680908 46.059879 32.825684 C 44.431259 38.970459 39.632061 43.769653 33.487297 45.398315 C 27.342529 47.026855 20.796341 45.234741 16.338066 40.703247 C 9.522841 33.776123 9.568149 22.649414 16.43956 15.777954 C 23.31097 8.906616 34.437679 8.861206 41.364819 15.676514 Z"/>
    <path id="qr" fill="#000000" stroke="none" d="M 68 29.319214 L 93.319267 29.319214 L 93.319267 4 L 68 4 Z M 74.329819 10.329834 L 86.989449 10.329834 L 86.989449 22.989502 L 74.329819 22.989502 Z M 68 60.968384 L 93.319267 60.968384 L 93.319267 35.649048 L 68 35.649048 Z M 74.329819 41.978882 L 86.989449 41.978882 L 86.989449 54.63855 L 74.329819 54.63855 Z M 99.649086 4 L 99.649086 29.319214 L 124.968346 29.319214 L 124.968346 4 Z M 118.638535 22.989502 L 105.978897 22.989502 L 105.978897 10.329834 L 118.638535 10.329834 Z M 99.680733 35.649048 L 106.010551 35.649048 L 106.010551 41.978882 L 99.680733 41.978882 Z M 106.010551 41.978882 L 112.340363 41.978882 L 112.340363 48.308716 L 106.010551 48.308716 Z M 99.680733 48.308716 L 106.010551 48.308716 L 106.010551 54.63855 L 99.680733 54.63855 Z M 112.340363 48.308716 L 118.670181 48.308716 L 118.670181 54.63855 L 112.340363 54.63855 Z M 118.670181 54.63855 L 125 54.63855 L 125 60.968384 L 118.670181 60.968384 Z M 106.010551 54.63855 L 112.340363 54.63855 L 112.340363 60.968384 L 106.010551 60.968384 Z M 112.340363 35.649048 L 118.670181 35.649048 L 118.670181 41.978882 L 112.340363 41.978882 Z M 118.670181 41.978882 L 125 41.978882 L 125 48.308716 L 118.670181 48.308716 Z"/>
    <g id="Group">
        <path id="Ellipse-copy-2" fill="#000000" fill-rule="evenodd" stroke="none" d="M 61.046513 95.5 C 61.046513 91.910156 58.13636 89 54.546513 89 C 50.956661 89 48.046513 91.910156 48.046513 95.5 C 48.046513 99.089844 50.956661 102 54.546513 102 C 58.13636 102 61.046513 99.089844 61.046513 95.5 Z"/>
        <path id="Ellipse" fill="#000000" fill-rule="evenodd" stroke="none" d="M 16 95.5 C 16 91.910156 13.08985 89 9.5 89 C 5.910149 89 3 91.910156 3 95.5 C 3 99.089844 5.910149 102 9.5 102 C 13.08985 102 16 99.089844 16 95.5 Z"/>
        <path id="Ellipse-copy" fill="#000000" fill-rule="evenodd" stroke="none" d="M 38.523254 95.5 C 38.523254 91.910156 35.613106 89 32.023254 89 C 28.433405 89 25.523256 91.910156 25.523256 95.5 C 25.523256 99.089844 28.433405 102 32.023254 102 C 35.613106 102 38.523254 99.089844 38.523254 95.5 Z"/>
    </g>
    <g id="directory-line">
        <path id="Path" fill="none" stroke="none" d="M 130 61 L 130 128 L 63 128 L 63 61 L 130 61 Z M 98.155457 125.928589 L 98.124748 125.934204 L 97.926544 126.03186 L 97.870712 126.043091 L 97.831627 126.03186 L 97.633415 125.934204 C 97.605499 125.922974 97.580376 125.931396 97.566414 125.94812 L 97.555252 125.976074 L 97.50779 127.170898 L 97.521751 127.226685 L 97.549667 127.262939 L 97.839996 127.469604 L 97.881874 127.480713 L 97.915375 127.469604 L 98.205711 127.262939 L 98.239212 127.218384 L 98.250374 127.170898 L 98.202919 125.978882 C 98.197334 125.950928 98.177788 125.931396 98.155457 125.928589 Z M 98.895248 125.613159 L 98.858955 125.618652 L 98.342499 125.878296 L 98.314583 125.90625 L 98.306206 125.937012 L 98.356461 127.137329 L 98.370415 127.170898 L 98.392754 127.19043 L 98.953873 127.450073 C 98.987373 127.461182 99.018082 127.450073 99.034836 127.427734 L 99.045998 127.388672 L 98.951088 125.674561 C 98.942703 125.640991 98.923164 125.618652 98.895248 125.613159 Z M 96.899208 125.618652 C 96.873161 125.606934 96.842422 125.613647 96.823837 125.635498 L 96.807083 125.674561 L 96.712166 127.388672 C 96.712166 127.422119 96.731705 127.444458 96.759628 127.455566 L 96.801498 127.450073 L 97.362625 127.19043 L 97.390541 127.168091 L 97.401711 127.137329 L 97.449165 125.937012 L 97.440788 125.903442 L 97.412872 125.875488 L 96.899208 125.618652 Z"/>
        <path id="path1" fill="#000000" fill-rule="evenodd" stroke="none" d="M 79.75 69.375 C 83.833786 69.368896 87.326538 72.309082 88.01693 76.334106 C 88.707321 80.359131 86.394043 84.295288 82.541664 85.650391 L 82.541664 91.708374 L 105.349586 91.708374 C 106.70929 87.861084 110.643036 85.552979 114.664787 86.242798 C 118.686539 86.932495 121.626358 90.419556 121.626358 94.5 C 121.626358 98.580444 118.686539 102.067383 114.664787 102.757202 C 110.643036 103.447021 106.70929 101.138916 105.349586 97.291626 L 82.541664 97.291626 L 82.541664 108.458374 C 82.541664 110.000122 83.791542 111.25 85.333336 111.25 L 105.349586 111.25 C 106.70929 107.40271 110.643036 105.094604 114.664787 105.784424 C 118.686539 106.474243 121.626358 109.961182 121.626358 114.041626 C 121.626358 118.122192 118.686539 121.609131 114.664787 122.29895 C 110.643036 122.988647 106.70929 120.680542 105.349586 116.833374 L 85.333336 116.833374 C 80.707947 116.833374 76.958336 113.08374 76.958336 108.458374 L 76.958336 85.650391 C 73.113136 84.289307 70.80706 80.356689 71.496643 76.336426 C 72.186226 72.316162 75.671021 69.376831 79.75 69.375 Z M 113.25 111.25 C 111.708206 111.25 110.458328 112.499878 110.458328 114.041626 C 110.458328 115.583496 111.708206 116.833374 113.25 116.833374 C 114.791794 116.833374 116.041672 115.583496 116.041672 114.041626 C 116.041672 112.499878 114.791794 111.25 113.25 111.25 Z M 113.25 91.708374 C 111.708206 91.708374 110.458328 92.958252 110.458328 94.5 C 110.458328 96.041748 111.708206 97.291626 113.25 97.291626 C 114.791794 97.291626 116.041672 96.041748 116.041672 94.5 C 116.041672 92.958252 114.791794 91.708374 113.25 91.708374 Z M 79.75 74.958374 C 78.208206 74.958374 76.958336 76.208252 76.958336 77.75 C 76.958336 79.291748 78.208206 80.541626 79.75 80.541626 C 81.291794 80.541626 82.541664 79.291748 82.541664 77.75 C 82.541664 76.208252 81.291794 74.958374 79.75 74.958374 Z"/>
    </g>
    <path id="subdirectory-left" fill="#000000" stroke="none" d="M 153.699997 58 L 150.449997 58 L 150.449997 25.5 L 134.199997 25.5 L 153.699997 6 L 173.199997 25.5 L 156.949997 25.5 L 156.949997 51.5 L 186.199997 51.5 L 186.199997 58 Z"/>
    <path id="chat-solid" fill="#000000" fill-rule="evenodd" stroke="none" d="M 148.813339 76.494995 C 156.636978 75.905518 164.495316 75.944336 172.312759 76.611084 L 177.021942 77.011475 C 180.581055 77.314575 183.469879 80.015137 184.011703 83.545776 L 184.307663 85.486816 C 185.316391 92.067139 185.222244 98.769409 184.029114 105.318726 C 183.440338 108.550049 180.62558 110.898315 177.341095 110.898438 L 151.297028 110.898438 C 150.696426 110.898438 150.107407 111.046387 149.57933 111.330688 L 138.231476 117.429688 C 137.556915 117.792236 136.741486 117.773438 136.084305 117.380371 C 135.427139 116.987183 135.024948 116.277588 135.025299 115.511841 L 135.025299 90.799561 C 135.02684 83.318115 140.793106 77.101563 148.253342 76.538574 L 148.813339 76.494995 Z M 148.807526 90.848877 C 146.804443 90.848877 145.180618 92.472656 145.180618 94.47583 C 145.180618 96.478882 146.804443 98.102661 148.807526 98.102661 C 150.810608 98.102661 152.434433 96.478882 152.434433 94.47583 C 152.434433 92.472656 150.810608 90.848877 148.807526 90.848877 Z M 160.41362 90.848877 C 158.410538 90.848877 156.786713 92.472656 156.786713 94.47583 C 156.786713 96.478882 158.410538 98.102661 160.41362 98.102661 C 162.416702 98.102661 164.040527 96.478882 164.040527 94.47583 C 164.040527 92.472656 162.416702 90.848877 160.41362 90.848877 Z M 168.392807 94.47583 C 168.392807 92.472656 170.016632 90.848877 172.019714 90.848877 C 174.022797 90.848877 175.646606 92.472656 175.646606 94.47583 C 175.646606 96.478882 174.022797 98.102661 172.019714 98.102661 C 170.016632 98.102661 168.392807 96.478882 168.392807 94.47583 Z"/>
    <path id="cloud-upload-solid" fill="#356eff" fill-rule="evenodd" stroke="none" d="M 214.810074 20.03894 C 218.049988 15.02417 224.14267 12.655273 229.919128 14.164429 C 235.695587 15.673462 239.851074 20.719727 240.224197 26.678345 C 244.338135 26.561646 248.198257 28.661743 250.335266 32.178955 C 252.472275 35.696289 252.557449 40.089844 250.55835 43.687256 C 248.55925 47.28479 244.783417 49.532715 240.668045 49.575562 L 210.998215 49.575562 C 205.176636 49.570068 199.883118 46.199219 197.415512 40.926514 C 194.947922 35.653809 195.75116 29.42981 199.476563 24.956299 C 203.201965 20.482788 209.177811 18.566284 214.810074 20.03894 Z M 232.109634 33.576294 C 231.785126 33.9823 231.312424 34.242798 230.795746 34.300049 C 230.279053 34.357422 229.760803 34.206909 229.355179 33.881714 L 226.010666 31.203003 L 226.010666 40.184326 C 226.010666 41.265747 225.133972 42.142456 224.052521 42.142456 C 222.971069 42.142456 222.094376 41.265747 222.094376 40.184326 L 222.094376 31.203003 L 218.747253 33.87915 C 217.902283 34.554688 216.669647 34.417358 215.994095 33.572388 C 215.318542 32.727295 215.455902 31.494751 216.300873 30.819214 L 222.8228 25.605225 C 223.166321 25.326416 223.594437 25.172729 224.03685 25.169312 L 224.057739 25.169312 C 224.527695 25.169312 224.955872 25.336426 225.292679 25.613159 L 231.804169 30.819214 C 232.210281 31.143677 232.470688 31.616333 232.527985 32.133057 C 232.585281 32.64978 232.434784 33.167969 232.109634 33.573608 Z"/>
    <path id="check-circle" fill="#356eff" stroke="none" d="M 347.920013 42.119995 L 363.429993 26.609985 L 360.350006 23.530029 L 347.920013 35.959961 L 341.649994 29.689941 L 338.570007 32.77002 L 347.920013 42.119995 Z M 351 54 C 347.956665 54 345.09668 53.422119 342.420013 52.266357 C 339.743347 51.110596 337.415009 49.543579 335.434998 47.564941 C 333.455017 45.584961 331.887878 43.256714 330.733612 40.579956 C 329.579346 37.90332 329.001465 35.043335 329 32 C 329 28.956665 329.577881 26.09668 330.733612 23.420044 C 331.889343 20.743286 333.456482 18.415039 335.434998 16.435059 C 337.415009 14.454956 339.743347 12.887817 342.420013 11.733643 C 345.09668 10.579346 347.956665 10.001465 351 10 C 354.043335 10 356.90332 10.577881 359.579987 11.733643 C 362.256653 12.889282 364.584991 14.456421 366.565002 16.435059 C 368.544983 18.415039 370.112854 20.743286 371.268585 23.420044 C 372.424316 26.09668 373.001465 28.956665 373 32 C 373 35.043335 372.422119 37.90332 371.266388 40.579956 C 370.110657 43.256714 368.543518 45.584961 366.565002 47.564941 C 364.584991 49.545044 362.256653 51.112793 359.579987 52.268555 C 356.90332 53.424316 354.043335 54.001465 351 54 Z"/>
    <path id="dropdown" fill="#000000" stroke="none" d="M 391.333313 20.333374 L 416 45 L 440.666656 20.333374 Z"/>
    <path id="gear-bold" fill="#000000" stroke="none" d="M 415.974762 86.500854 C 410.165466 86.500854 405.456085 91.210205 405.456085 97.019531 C 405.456085 102.828857 410.165466 107.538208 415.974762 107.538208 C 421.784058 107.538208 426.493439 102.828857 426.493439 97.019531 C 426.486755 91.213013 421.781281 86.507568 415.974762 86.500854 Z M 415.974762 102.683472 C 412.84668 102.683472 410.310852 100.147583 410.310852 97.019531 C 410.310852 93.891479 412.84668 91.355591 415.974762 91.355591 C 419.102844 91.355591 421.638672 93.891479 421.638672 97.019531 C 421.638672 100.147583 419.102844 102.683472 415.974762 102.683472 Z M 434.584717 97.179321 L 434.584717 96.859741 L 437.416656 93.317749 C 437.898773 92.715942 438.066193 91.920776 437.867767 91.175659 C 437.35672 89.248047 436.592896 87.396606 435.59613 85.669556 C 435.206696 85.001465 434.522308 84.559082 433.753326 84.478027 L 429.24649 83.972412 L 429.021973 83.747803 L 428.516266 79.238892 C 428.434662 78.470703 427.992249 77.787231 427.324799 77.398193 C 425.597534 76.398315 423.745361 75.631714 421.816681 75.118408 C 421.070862 74.922974 420.276489 75.093384 419.676514 75.577637 L 416.134552 78.409546 L 415.814972 78.409546 L 412.27301 75.577637 C 411.671143 75.095581 410.876007 74.928101 410.130829 75.126587 C 408.202789 75.640747 406.351349 76.408081 404.624725 77.408325 C 403.959412 77.795654 403.517334 78.475708 403.433289 79.240967 L 402.927582 83.747803 L 402.703033 83.972412 L 398.194153 84.478027 C 397.425934 84.559692 396.742432 85.002075 396.353394 85.669556 C 395.356293 87.397217 394.592468 89.24939 394.081787 91.177612 C 393.884003 91.922241 394.051422 92.716431 394.532867 93.317749 L 397.364807 96.859741 L 397.364807 97.179321 L 394.532867 100.721313 C 394.050781 101.32312 393.883331 102.118286 394.081787 102.863525 C 394.596649 104.791626 395.364563 106.643066 396.36554 108.369629 C 396.752502 109.034302 397.431671 109.476318 398.196198 109.561035 L 402.703033 110.062744 L 402.927582 110.287231 L 403.433289 114.800171 C 403.514862 115.568359 403.957275 116.251831 404.624725 116.640869 C 406.35199 117.640869 408.204163 118.407349 410.132843 118.920654 C 410.878693 119.116211 411.673035 118.945679 412.27301 118.461426 L 415.814972 115.629517 L 416.134552 115.629517 L 419.676514 118.461426 C 420.278381 118.943604 421.073517 119.110962 421.818695 118.912598 C 423.746216 118.401489 425.597656 117.637695 427.324799 116.640869 C 427.991669 116.254517 428.435364 115.574219 428.520294 114.808228 L 429.021973 110.301392 L 429.24649 110.076904 L 433.755371 109.561035 C 434.521393 109.476074 435.201569 109.032349 435.588043 108.365601 C 436.587952 106.638306 437.354523 104.786133 437.867767 102.857422 C 438.064148 102.114136 437.89682 101.321777 437.416656 100.721313 Z M 429.705688 96.190186 C 429.738037 96.742676 429.738037 97.296509 429.705688 97.848877 C 429.669525 98.449463 429.857666 99.041992 430.233643 99.511719 L 432.830933 102.758301 C 432.585754 103.484009 432.293152 104.192871 431.955048 104.880249 L 427.822418 105.339355 C 427.224091 105.407837 426.672546 105.696167 426.274963 106.14856 C 425.907501 106.5625 425.515717 106.954346 425.101746 107.321777 C 424.649414 107.71936 424.361023 108.270874 424.292603 108.869263 L 423.835449 112.999878 C 423.148193 113.339355 422.439331 113.633301 421.713501 113.879761 L 418.466888 111.280396 C 418.036011 110.936646 417.500977 110.749756 416.949768 110.750488 L 416.804108 110.750488 C 416.251678 110.782837 415.697845 110.782837 415.145416 110.750488 C 414.545288 110.714844 413.953156 110.902222 413.482635 111.276367 L 410.236023 113.875732 C 409.510284 113.630493 408.801453 113.337891 408.114075 112.999878 L 407.654907 108.867188 C 407.586487 108.268921 407.298096 107.717285 406.845764 107.319702 C 406.431763 106.952271 406.040009 106.560547 405.672546 106.146484 C 405.274933 105.694214 404.723419 105.405762 404.125092 105.337402 L 399.994476 104.880249 C 399.654999 104.192993 399.361053 103.484131 399.114563 102.758301 L 401.711853 99.511719 C 402.087799 99.041992 402.27597 98.449463 402.239807 97.848877 C 402.207428 97.296509 402.207428 96.742676 402.239807 96.190186 C 402.27597 95.589722 402.087799 94.99707 401.711853 94.527466 L 399.118591 91.280762 C 399.36377 90.555054 399.656372 89.846191 399.994476 89.158813 L 404.127106 88.699707 C 404.725433 88.631226 405.276978 88.342896 405.674561 87.890503 C 406.042023 87.476563 406.433807 87.084839 406.847809 86.717285 C 407.30014 86.319702 407.588501 85.768188 407.656921 85.169922 L 408.114075 81.039307 C 408.801361 80.699829 409.510193 80.405884 410.236023 80.159302 L 413.482635 82.758667 C 413.953156 83.132813 414.545288 83.32019 415.145416 83.284546 C 415.697845 83.252197 416.251678 83.252197 416.804108 83.284546 C 417.404388 83.321289 417.996918 83.133911 418.466888 82.758667 L 421.713501 80.159302 C 422.439331 80.405884 423.148193 80.699829 423.835449 81.039307 L 424.294617 85.171875 C 424.363037 85.770264 424.651428 86.321777 425.10376 86.71936 C 425.517761 87.086792 425.909515 87.478638 426.276978 87.892578 C 426.674591 88.344971 427.226105 88.633301 427.824463 88.70166 L 431.955048 89.158813 C 432.294525 89.846191 432.58847 90.554932 432.834991 91.280762 L 430.237671 94.527466 C 429.86026 94.996582 429.670654 95.589111 429.705688 96.190186 Z"/>
    <path id="home-bold" fill="#000000" stroke="none" d="M 498.311829 91.973999 C 498.311829 90.469604 497.092346 89.250244 495.588074 89.250244 C 494.083801 89.250244 492.864319 90.469604 492.864319 91.973999 L 498.311829 91.973999 Z M 467.805847 91.973999 C 467.805847 90.469604 466.586395 89.250244 465.082092 89.250244 C 463.57782 89.250244 462.358368 90.469604 462.358368 91.973999 L 467.805847 91.973999 Z M 498.019836 98.258179 C 499.083679 99.322021 500.808472 99.322021 501.872314 98.258179 C 502.936127 97.194336 502.936127 95.469482 501.872314 94.405762 L 498.019836 98.258179 Z M 480.335083 76.720947 L 482.261322 74.794678 C 481.750519 74.283813 481.057587 73.996704 480.335083 73.996704 C 479.612579 73.996704 478.919678 74.283813 478.408844 74.794678 L 480.335083 76.720947 Z M 458.797882 94.405762 C 457.734039 95.469482 457.734039 97.194336 458.797882 98.258179 C 459.861694 99.322021 461.586517 99.322021 462.65033 98.258179 L 458.797882 94.405762 Z M 469.440094 118.666626 L 491.230072 118.666626 L 491.230072 113.219116 L 469.440094 113.219116 L 469.440094 118.666626 Z M 498.311829 111.584961 L 498.311829 91.973999 L 492.864319 91.973999 L 492.864319 111.584961 L 498.311829 111.584961 Z M 467.805847 111.584961 L 467.805847 91.973999 L 462.358368 91.973999 L 462.358368 111.584961 L 467.805847 111.584961 Z M 501.872314 94.405762 L 482.261322 74.794678 L 478.408844 78.647217 L 498.019836 98.258179 L 501.872314 94.405762 Z M 478.408844 74.794678 L 458.797882 94.405762 L 462.65033 98.258179 L 482.261322 78.647217 L 478.408844 74.794678 Z M 491.230072 118.666626 C 495.141235 118.666626 498.311829 115.496094 498.311829 111.584961 L 492.864319 111.584961 C 492.864319 112.487549 492.13266 113.219116 491.230072 113.219116 L 491.230072 118.666626 Z M 469.440094 113.219116 C 468.537537 113.219116 467.805847 112.487549 467.805847 111.584961 L 462.358368 111.584961 C 462.358368 115.496094 465.528961 118.666626 469.440094 118.666626 L 469.440094 113.219116 Z"/>
    <path id="upload-bold" fill="#000000" stroke="none" d="M 235.379303 107.603516 C 233.703415 107.603516 232.344833 106.244995 232.344833 104.569092 C 232.344833 102.893188 233.703415 101.534546 235.379303 101.534546 C 237.055206 101.534546 238.413788 102.893188 238.413788 104.569092 C 238.413788 106.244995 237.055206 107.603516 235.379303 107.603516 Z M 242.206894 94.707031 L 233.862076 94.707031 C 232.605148 94.707031 231.586212 95.725952 231.586212 96.98291 C 231.586212 98.239746 232.605148 99.258789 233.862076 99.258789 L 241.448273 99.258789 L 241.448273 109.879395 L 206.551727 109.879395 L 206.551727 99.258789 L 214.137924 99.258789 C 215.394852 99.258789 216.413788 98.239746 216.413788 96.98291 C 216.413788 95.725952 215.394852 94.707031 214.137924 94.707031 L 205.793106 94.707031 C 203.698227 94.707031 202 96.405273 202 98.500122 L 202 110.638062 C 202 112.73291 203.698227 114.431152 205.793106 114.431152 L 242.206894 114.431152 C 244.301773 114.431152 246 112.73291 246 110.638062 L 246 98.500122 C 246 96.405273 244.301773 94.707031 242.206894 94.707031 Z M 216.506729 87.972412 L 221.724136 82.758789 L 221.724136 96.98291 C 221.724136 98.239746 222.743073 99.258789 224 99.258789 C 225.256927 99.258789 226.275864 98.239746 226.275864 96.98291 L 226.275864 82.758789 L 231.493271 87.978027 C 232.383591 88.868408 233.827087 88.868408 234.717407 87.978027 C 235.607742 87.087769 235.607742 85.644287 234.717407 84.753906 L 225.613968 75.650513 C 225.186935 75.221924 224.606857 74.981079 224.001892 74.981079 C 223.396927 74.981079 222.816864 75.221924 222.389832 75.650513 L 213.286377 84.753906 C 212.396057 85.644287 212.396057 87.087769 213.286377 87.978027 C 214.176697 88.868408 215.620193 88.868408 216.510513 87.978027 Z"/>
    <g id="sort">
        <path id="path2" fill="#000000" stroke="none" d="M 294.304657 19.838989 C 294.443573 20.715942 293.845245 21.539429 292.968262 21.678345 C 292.091278 21.817261 291.267761 21.218872 291.128845 20.341919 C 290.98996 19.464966 291.588287 18.641479 292.465271 18.502563 C 293.342224 18.363647 294.165771 18.961914 294.304657 19.838989 Z"/>
        <path id="path3" fill="#000000" stroke="none" d="M 276.586731 21.016479 C 275.709473 21.155396 275.110962 21.979248 275.249939 22.856445 C 275.388885 23.733765 276.212677 24.332275 277.089935 24.193237 L 276.586731 21.016479 Z M 283.440338 23.18689 C 284.317596 23.047974 284.916107 22.224121 284.777161 21.346924 C 284.638184 20.469604 283.814392 19.871094 282.937134 20.01001 L 283.440338 23.18689 Z M 278.094757 30.543701 C 277.217499 30.682617 276.618988 31.50647 276.757935 32.383667 C 276.896912 33.260986 277.720703 33.859497 278.597961 33.720459 L 278.094757 30.543701 Z M 294.477203 31.204468 C 295.053192 31.124268 295.540955 30.739136 295.752686 30.19751 C 295.964447 29.655884 295.867188 29.042114 295.498322 28.592529 C 295.129486 28.142822 294.54657 27.92749 293.973969 28.029297 L 294.477203 31.204468 Z M 279.102783 36.897339 C 278.225525 37.036255 277.627014 37.860107 277.765991 38.737305 C 277.904938 39.614624 278.728729 40.213135 279.605988 40.074097 L 279.102783 36.897339 Z M 292.308411 38.061279 C 292.886169 37.983276 293.376465 37.598633 293.589691 37.05603 C 293.802917 36.513428 293.705688 35.897949 293.335571 35.447388 C 292.965454 34.996948 292.380493 34.782104 291.806793 34.886108 L 292.310028 38.061279 Z M 277.687988 48.514526 L 277.435608 46.926147 L 277.687988 48.514526 Z M 274.006378 45.840942 L 272.417969 46.093384 L 274.006378 45.840942 Z M 302.588043 41.313721 L 300.999634 41.56604 L 302.588043 41.315308 Z M 299.914429 44.993652 L 300.16684 46.580444 L 299.914429 44.993652 Z M 294.634735 11.646851 L 294.383942 10.060059 L 294.634735 11.646851 Z M 298.313171 14.320435 L 299.901581 14.067993 L 298.313171 14.320435 Z M 272.405121 15.167725 L 272.655914 16.756104 L 272.405121 15.167725 Z M 269.729889 18.847656 L 271.318298 18.595337 L 269.729889 18.847656 Z M 305.452942 22.846069 L 305.452942 50.17688 L 308.668335 50.17688 L 308.668335 22.846069 L 305.452942 22.846069 Z M 303.845245 51.784546 L 281.337463 51.784546 L 281.337463 55 L 303.845245 55 L 303.845245 51.784546 Z M 281.337463 51.784546 C 280.449585 51.784546 279.729767 51.064819 279.729767 50.17688 L 276.514374 50.17688 C 276.514374 52.840576 278.673767 55 281.337463 55 L 281.337463 51.784546 Z M 305.452942 50.17688 C 305.452942 51.064819 304.733154 51.784546 303.845245 51.784546 L 303.845245 55 C 306.508972 55 308.668335 52.840576 308.668335 50.17688 L 305.452942 50.17688 Z M 303.845245 21.238403 C 304.733154 21.238403 305.452942 21.95813 305.452942 22.846069 L 308.668335 22.846069 C 308.668335 20.182373 306.508972 18.022949 303.845245 18.022949 L 303.845245 21.238403 Z M 279.729767 50.17688 L 279.729767 46.961548 L 276.514374 46.961548 L 276.514374 50.17688 L 279.729767 50.17688 Z M 303.845245 18.022949 L 299.022156 18.022949 L 299.022156 21.238403 L 303.845245 21.238403 L 303.845245 18.022949 Z M 277.089935 24.193237 L 283.440338 23.18689 L 282.937134 20.01001 L 276.586731 21.016479 L 277.089935 24.193237 Z M 278.597961 33.720459 L 294.477203 31.204468 L 293.973969 28.029297 L 278.094757 30.543701 L 278.597961 33.720459 Z M 279.60437 40.070923 L 292.306793 38.059692 L 291.805206 34.884521 L 279.101166 36.895752 L 279.60437 40.07251 Z M 272.655914 16.75769 L 294.887146 13.236816 L 294.383942 10.061646 L 272.15271 13.58252 L 272.655914 16.75769 Z M 296.726349 14.572876 L 301.002838 41.56604 L 304.17804 41.064453 L 299.901581 14.071167 L 296.726349 14.572876 Z M 299.665222 43.405273 L 277.43399 46.926147 L 277.937195 50.101318 L 300.168427 46.580444 L 299.665222 43.405273 Z M 275.594788 45.590088 L 271.318298 18.596924 L 268.143097 19.098511 L 272.419586 46.091797 L 275.594788 45.590088 Z M 277.43399 46.926147 C 276.55722 47.064941 275.733887 46.466919 275.594788 45.590088 L 272.419586 46.093384 C 272.836884 48.723511 275.306885 50.5177 277.937195 50.101318 L 277.43399 46.926147 Z M 301.002838 41.56604 C 301.069458 41.987305 300.965942 42.417847 300.715088 42.762817 C 300.464203 43.107788 300.086548 43.338867 299.665222 43.405273 L 300.168427 46.580444 C 302.799255 46.16394 304.59436 43.693726 304.17804 41.062866 L 301.001221 41.56604 Z M 294.885559 13.235229 C 295.762329 13.096436 296.585663 13.694458 296.724762 14.571167 L 299.899963 14.067993 C 299.482666 11.437866 297.012634 9.643677 294.382324 10.060059 L 294.885559 13.235229 Z M 272.15271 13.580933 C 270.889038 13.780518 269.75647 14.473999 269.004211 15.508789 C 268.251923 16.543579 267.941589 17.834839 268.141479 19.098511 L 271.318298 18.595337 C 271.251678 18.17395 271.355194 17.74353 271.606079 17.39856 C 271.856934 17.053589 272.234589 16.82251 272.655914 16.756104 L 272.15271 13.580933 Z"/>
    </g>
    <g id="rows-4-line">
        <path id="path4" fill="none" stroke="none" d="M 314 72 L 314 122 L 264 122 L 264 72 L 314 72 Z M 290.235413 120.454224 L 290.212494 120.458374 L 290.064575 120.53125 L 290.022919 120.539551 L 289.993744 120.53125 L 289.845825 120.458374 C 289.825012 120.449951 289.806244 120.456299 289.795837 120.46875 L 289.787506 120.489624 L 289.752075 121.381226 L 289.762512 121.422974 L 289.783325 121.449951 L 290 121.604126 L 290.03125 121.612549 L 290.056244 121.604126 L 290.272919 121.449951 L 290.297913 121.416626 L 290.306244 121.381226 L 290.270844 120.491699 C 290.266663 120.470825 290.252075 120.456299 290.235413 120.454224 Z M 290.787506 120.21875 L 290.760406 120.2229 L 290.375 120.416626 L 290.354156 120.4375 L 290.347931 120.460449 L 290.385406 121.356201 L 290.395844 121.381226 L 290.412506 121.395874 L 290.831238 121.5896 C 290.856262 121.5979 290.879181 121.5896 290.891663 121.572876 L 290.899994 121.543701 L 290.829163 120.264526 C 290.822906 120.239624 290.808319 120.2229 290.787506 120.21875 Z M 289.297913 120.2229 C 289.278473 120.214111 289.255524 120.219238 289.241669 120.235474 L 289.229156 120.264526 L 289.158325 121.543701 C 289.158325 121.568726 289.172913 121.585449 289.193756 121.59375 L 289.225006 121.5896 L 289.643738 121.395874 L 289.664581 121.37915 L 289.672913 121.356201 L 289.708344 120.460449 L 289.702087 120.435425 L 289.681244 120.414551 L 289.297913 120.2229 Z"/>
        <path id="path5" fill="#356eff" fill-rule="evenodd" stroke="none" d="M 270.25 82.416626 C 270.25 80.115479 272.115479 78.25 274.416656 78.25 L 303.583344 78.25 C 305.884521 78.25 307.75 80.115479 307.75 82.416626 L 307.75 111.583374 C 307.75 113.884521 305.884521 115.75 303.583344 115.75 L 274.416656 115.75 C 272.115479 115.75 270.25 113.884521 270.25 111.583374 L 270.25 82.416626 Z M 303.583344 82.416626 L 274.416656 82.416626 L 274.416656 88.666626 L 303.583344 88.666626 L 303.583344 82.416626 Z M 274.416656 101.166626 L 274.416656 92.833374 L 303.583344 92.833374 L 303.583344 101.166626 L 274.416656 101.166626 Z M 274.416656 105.333374 L 274.416656 111.583374 L 303.583344 111.583374 L 303.583344 105.333374 L 274.416656 105.333374 Z"/>
    </g>
    <path id="squares-four" fill="#000000" stroke="none" d="M 346.818176 78 L 336.454559 78 C 334.546661 78 333 79.546631 333 81.45459 L 333 91.818237 C 333 93.726074 334.546661 95.272705 336.454559 95.272705 L 346.818176 95.272705 C 348.726074 95.272705 350.272736 93.726074 350.272736 91.818237 L 350.272736 81.45459 C 350.272736 79.546631 348.726074 78 346.818176 78 Z M 346.818176 91.818237 L 336.454559 91.818237 L 336.454559 81.45459 L 346.818176 81.45459 L 346.818176 91.818237 Z M 367.545441 78 L 357.181824 78 C 355.273926 78 353.727264 79.546631 353.727264 81.45459 L 353.727264 91.818237 C 353.727264 93.726074 355.273926 95.272705 357.181824 95.272705 L 367.545441 95.272705 C 369.453339 95.272705 371 93.726074 371 91.818237 L 371 81.45459 C 371 79.546631 369.453339 78 367.545441 78 Z M 367.545441 91.818237 L 357.181824 91.818237 L 357.181824 81.45459 L 367.545441 81.45459 L 367.545441 91.818237 Z M 346.818176 98.727295 L 336.454559 98.727295 C 334.546661 98.727295 333 100.273926 333 102.181763 L 333 112.54541 C 333 114.453369 334.546661 116 336.454559 116 L 346.818176 116 C 348.726074 116 350.272736 114.453369 350.272736 112.54541 L 350.272736 102.181763 C 350.272736 100.273926 348.726074 98.727295 346.818176 98.727295 Z M 346.818176 112.54541 L 336.454559 112.54541 L 336.454559 102.181763 L 346.818176 102.181763 L 346.818176 112.54541 Z M 367.545441 98.727295 L 357.181824 98.727295 C 355.273926 98.727295 353.727264 100.273926 353.727264 102.181763 L 353.727264 112.54541 C 353.727264 114.453369 355.273926 116 357.181824 116 L 367.545441 116 C 369.453339 116 371 114.453369 371 112.54541 L 371 102.181763 C 371 100.273926 369.453339 98.727295 367.545441 98.727295 Z M 367.545441 112.54541 L 357.181824 112.54541 L 357.181824 102.181763 L 367.545441 102.181763 L 367.545441 112.54541 Z"/>
</svg>
