<?xml version="1.0" encoding="UTF-8"?>
<!-- Generated by Pixelmator Pro 3.3.11 -->
<svg width="1280" height="1280" viewBox="0 0 1280 1280" xmlns="http://www.w3.org/2000/svg">
    <path id="search" fill="#000000" fill-rule="evenodd" stroke="none" d="M 47.488041 42.664673 C 55.121719 32.82312 53.792942 18.743408 44.452847 10.503784 C 35.112747 2.264038 20.977261 2.701538 12.164484 11.50293 C 3.343428 20.311035 2.895444 34.46106 11.141672 43.809448 C 19.387899 53.157837 33.483223 54.479248 43.323303 46.826416 L 43.450138 46.959229 L 55.962032 59.473999 C 57.114536 60.626587 58.98312 60.626587 60.135624 59.473999 C 61.288124 58.321533 61.288124 56.453003 60.135624 55.300415 L 47.620773 42.788574 C 47.577671 42.746094 47.533413 42.704712 47.488041 42.664673 Z M 41.364819 15.676514 C 45.896305 20.134766 47.688499 26.680908 46.059879 32.825684 C 44.431259 38.970459 39.632061 43.769653 33.487297 45.398315 C 27.342529 47.026855 20.796341 45.234741 16.338066 40.703247 C 9.522841 33.776123 9.568149 22.649414 16.43956 15.777954 C 23.31097 8.906616 34.437679 8.861206 41.364819 15.676514 Z"/>
    <path id="qr" fill="#000000" stroke="none" d="M 68 29.319214 L 93.319267 29.319214 L 93.319267 4 L 68 4 Z M 74.329819 10.329834 L 86.989449 10.329834 L 86.989449 22.989502 L 74.329819 22.989502 Z M 68 60.968384 L 93.319267 60.968384 L 93.319267 35.649048 L 68 35.649048 Z M 74.329819 41.978882 L 86.989449 41.978882 L 86.989449 54.63855 L 74.329819 54.63855 Z M 99.649086 4 L 99.649086 29.319214 L 124.968346 29.319214 L 124.968346 4 Z M 118.638535 22.989502 L 105.978897 22.989502 L 105.978897 10.329834 L 118.638535 10.329834 Z M 99.680733 35.649048 L 106.010551 35.649048 L 106.010551 41.978882 L 99.680733 41.978882 Z M 106.010551 41.978882 L 112.340363 41.978882 L 112.340363 48.308716 L 106.010551 48.308716 Z M 99.680733 48.308716 L 106.010551 48.308716 L 106.010551 54.63855 L 99.680733 54.63855 Z M 112.340363 48.308716 L 118.670181 48.308716 L 118.670181 54.63855 L 112.340363 54.63855 Z M 118.670181 54.63855 L 125 54.63855 L 125 60.968384 L 118.670181 60.968384 Z M 106.010551 54.63855 L 112.340363 54.63855 L 112.340363 60.968384 L 106.010551 60.968384 Z M 112.340363 35.649048 L 118.670181 35.649048 L 118.670181 41.978882 L 112.340363 41.978882 Z M 118.670181 41.978882 L 125 41.978882 L 125 48.308716 L 118.670181 48.308716 Z"/>
    <g id="Group">
        <path id="Ellipse-copy-2" fill="#000000" fill-rule="evenodd" stroke="none" d="M 61.046513 95.5 C 61.046513 91.910156 58.13636 89 54.546513 89 C 50.956661 89 48.046513 91.910156 48.046513 95.5 C 48.046513 99.089844 50.956661 102 54.546513 102 C 58.13636 102 61.046513 99.089844 61.046513 95.5 Z"/>
        <path id="Ellipse" fill="#000000" fill-rule="evenodd" stroke="none" d="M 16 95.5 C 16 91.910156 13.08985 89 9.5 89 C 5.910149 89 3 91.910156 3 95.5 C 3 99.089844 5.910149 102 9.5 102 C 13.08985 102 16 99.089844 16 95.5 Z"/>
        <path id="Ellipse-copy" fill="#000000" fill-rule="evenodd" stroke="none" d="M 38.523254 95.5 C 38.523254 91.910156 35.613106 89 32.023254 89 C 28.433405 89 25.523256 91.910156 25.523256 95.5 C 25.523256 99.089844 28.433405 102 32.023254 102 C 35.613106 102 38.523254 99.089844 38.523254 95.5 Z"/>
    </g>
    <g id="folder-path-connect-line-duotone">
        <path id="Path" fill="none" stroke="#000000" stroke-width="11.501626" stroke-linecap="round" opacity="0.5" d="M 108.058342 83.608276 L 99.90834 83.608276"/>
        <path id="path1" fill="none" stroke="#000000" stroke-width="4.075001" d="M 76.816666 77.406128 C 76.816666 75.849487 76.816666 75.069824 76.949783 74.420532 C 77.528435 71.562622 79.938118 69.329468 83.01339 68.78894 C 83.711571 68.666626 84.551018 68.666626 86.229919 68.666626 C 86.963417 68.666626 87.332886 68.666626 87.686058 68.696533 C 89.20739 68.829712 90.655373 69.386597 91.831688 70.29126 C 92.103355 70.503174 92.364151 70.744873 92.885757 71.225708 L 93.931671 72.198364 C 95.482887 73.638184 96.259857 74.358032 97.186241 74.838867 C 97.696976 75.102417 98.240303 75.311646 98.799934 75.458374 C 99.82412 75.72998 100.918938 75.72998 103.114006 75.72998 L 103.823059 75.72998 C 108.82988 75.72998 111.331924 75.72998 112.959213 77.088379 C 113.108627 77.213257 113.252609 77.346436 113.385727 77.484985 C 114.850014 78.995483 114.850014 81.320923 114.850014 85.969116 L 114.850014 89.856689 C 114.850014 96.515259 114.850014 99.845825 112.622345 101.913208 C 110.394676 103.983276 106.808678 103.983276 99.636673 103.983276 L 92.030006 103.983276 C 84.858002 103.983276 81.272003 103.983276 79.044334 101.915894 C 76.816666 99.84314 76.816666 96.512451 76.816666 89.856689 L 76.816666 77.406128 Z"/>
        <path id="path2" fill="none" stroke="#000000" stroke-width="4.075001" stroke-linecap="round" opacity="0.5" d="M 123.000015 117.56665 L 101.26667 117.56665 M 68.666664 117.56665 L 90.400002 117.56665 M 95.833336 112.133301 L 95.833336 103.983276"/>
        <path id="path3" fill="none" stroke="#000000" stroke-width="4.075001" d="M 101.26667 117.56665 C 101.26667 120.567383 98.834084 123 95.833336 123 C 92.832588 123 90.400002 120.567383 90.400002 117.56665 C 90.400002 114.565918 92.832588 112.133301 95.833336 112.133301 C 98.834084 112.133301 101.26667 114.565918 101.26667 117.56665 Z"/>
    </g>
</svg>
